<svg width="9" height="14" viewBox="0 0 9 14" fill="none" xmlns="http://www.w3.org/2000/svg">
<path d="M4.16667 3.73818C4.54555 3.73818 4.90892 3.88869 5.17682 4.1566C5.44473 4.4245 5.59524 4.78787 5.59524 5.16675C5.59524 5.35435 5.55829 5.54012 5.4865 5.71344C5.41471 5.88676 5.30948 6.04425 5.17682 6.1769C5.04417 6.30956 4.88668 6.41478 4.71336 6.48658C4.54004 6.55837 4.35427 6.59532 4.16667 6.59532C3.78779 6.59532 3.42443 6.44481 3.15652 6.1769C2.88861 5.90899 2.7381 5.54563 2.7381 5.16675C2.7381 4.78787 2.88861 4.4245 3.15652 4.1566C3.42443 3.88869 3.78779 3.73818 4.16667 3.73818ZM4.16667 1.16675C5.22754 1.16675 6.24495 1.58818 6.9951 2.33832C7.74524 3.08847 8.16667 4.10588 8.16667 5.16675C8.16667 8.16675 4.16667 12.5953 4.16667 12.5953C4.16667 12.5953 0.166672 8.16675 0.166672 5.16675C0.166672 4.10588 0.588099 3.08847 1.33824 2.33832C2.08839 1.58818 3.10581 1.16675 4.16667 1.16675ZM4.16667 2.30961C3.40891 2.30961 2.68218 2.61062 2.14637 3.14644C1.61055 3.68226 1.30953 4.40899 1.30953 5.16675C1.30953 5.73818 1.30953 6.88103 4.16667 10.7153C7.02382 6.88103 7.02382 5.73818 7.02382 5.16675C7.02382 4.40899 6.7228 3.68226 6.18698 3.14644C5.65116 2.61062 4.92443 2.30961 4.16667 2.30961Z" fill="#292929"/>
</svg>
