<svg width="13" height="8" viewBox="0 0 13 8" fill="none" xmlns="http://www.w3.org/2000/svg">
<path fill-rule="evenodd" clip-rule="evenodd" d="M0.971436 4.00002C0.971436 4.11367 1.01659 4.22267 1.09695 4.30304C1.17732 4.38341 1.28632 4.42856 1.39998 4.42856L11.5076 4.42856L8.81036 7.12496C8.72989 7.20543 8.68469 7.31457 8.68469 7.42837C8.68469 7.54217 8.72989 7.65131 8.81036 7.73178C8.89083 7.81225 8.99997 7.85745 9.11377 7.85745C9.22757 7.85745 9.33671 7.81225 9.41718 7.73178L12.8455 4.30342C12.8854 4.26362 12.9171 4.21633 12.9387 4.16426C12.9603 4.1122 12.9714 4.05638 12.9714 4.00002C12.9714 3.94365 12.9603 3.88783 12.9387 3.83577C12.9171 3.78371 12.8854 3.73641 12.8455 3.69661L9.41718 0.268254C9.37734 0.22841 9.33004 0.196804 9.27798 0.17524C9.22592 0.153677 9.17012 0.142578 9.11377 0.142578C8.99997 0.142578 8.89083 0.187785 8.81036 0.268254C8.72989 0.348723 8.68469 0.457863 8.68469 0.571663C8.68469 0.685464 8.72989 0.794604 8.81036 0.875073L11.5076 3.57147L1.39998 3.57147C1.28632 3.57147 1.17732 3.61662 1.09695 3.69699C1.01659 3.77736 0.971436 3.88636 0.971436 4.00002Z" fill="#1A1A1A"/>
</svg>
