<svg width="13" height="9" viewBox="0 0 13 9" fill="none" xmlns="http://www.w3.org/2000/svg">
<path fill-rule="evenodd" clip-rule="evenodd" d="M0.5 4.5C0.5 4.61366 0.54515 4.72266 0.625517 4.80303C0.705885 4.88339 0.814887 4.92854 0.928544 4.92854L11.0362 4.92854L8.33893 7.62494C8.25846 7.70541 8.21325 7.81455 8.21325 7.92835C8.21325 8.04215 8.25846 8.15129 8.33893 8.23176C8.4194 8.31223 8.52854 8.35744 8.64234 8.35744C8.75614 8.35744 8.86528 8.31223 8.94575 8.23176L12.3741 4.80341C12.414 4.7636 12.4457 4.71631 12.4673 4.66425C12.4889 4.61218 12.5 4.55637 12.5 4.5C12.5 4.44363 12.4889 4.38782 12.4673 4.33575C12.4457 4.28369 12.414 4.2364 12.3741 4.19659L8.94575 0.768239C8.9059 0.728395 8.8586 0.696789 8.80654 0.675225C8.75448 0.653662 8.69869 0.642563 8.64234 0.642563C8.52854 0.642563 8.4194 0.68777 8.33893 0.768239C8.25846 0.848708 8.21325 0.957848 8.21325 1.07165C8.21325 1.18545 8.25846 1.29459 8.33893 1.37506L11.0362 4.07146L0.928544 4.07146C0.814887 4.07146 0.705885 4.11661 0.625517 4.19697C0.54515 4.27734 0.5 4.38634 0.5 4.5Z" fill="white"/>
</svg>
