<svg width="21" height="14" viewBox="0 0 21 14" fill="none" xmlns="http://www.w3.org/2000/svg">
<path d="M2.04861 13.7988H19.8264C20.4375 13.7988 20.9375 13.2988 20.9375 12.6877C20.9375 12.0766 20.4375 11.5766 19.8264 11.5766H2.04861C1.4375 11.5766 0.9375 12.0766 0.9375 12.6877C0.9375 13.2988 1.4375 13.7988 2.04861 13.7988ZM2.04861 8.24323H19.8264C20.4375 8.24323 20.9375 7.74323 20.9375 7.13212C20.9375 6.52101 20.4375 6.02101 19.8264 6.02101H2.04861C1.4375 6.02101 0.9375 6.52101 0.9375 7.13212C0.9375 7.74323 1.4375 8.24323 2.04861 8.24323ZM0.9375 1.57657C0.9375 2.18768 1.4375 2.68768 2.04861 2.68768H19.8264C20.4375 2.68768 20.9375 2.18768 20.9375 1.57657C20.9375 0.965454 20.4375 0.465454 19.8264 0.465454H2.04861C1.4375 0.465454 0.9375 0.965454 0.9375 1.57657Z" fill="white"/>
</svg>
