<svg width="25" height="25" viewBox="0 0 25 25" fill="none" xmlns="http://www.w3.org/2000/svg">
<rect x="0.5" y="0.5" width="24" height="24" rx="12" stroke="white"/>
<path fill-rule="evenodd" clip-rule="evenodd" d="M6.5 12.5C6.5 12.6137 6.54515 12.7227 6.62552 12.803C6.70588 12.8834 6.81489 12.9285 6.92854 12.9285H17.0362L14.3389 15.6249C14.2585 15.7054 14.2133 15.8146 14.2133 15.9284C14.2133 16.0422 14.2585 16.1513 14.3389 16.2318C14.4194 16.3122 14.5285 16.3574 14.6423 16.3574C14.7561 16.3574 14.8653 16.3122 14.9457 16.2318L18.3741 12.8034C18.414 12.7636 18.4457 12.7163 18.4673 12.6642C18.4889 12.6122 18.5 12.5564 18.5 12.5C18.5 12.4436 18.4889 12.3878 18.4673 12.3358C18.4457 12.2837 18.414 12.2364 18.3741 12.1966L14.9457 8.76824C14.9059 8.72839 14.8586 8.69679 14.8065 8.67523C14.7545 8.65366 14.6987 8.64256 14.6423 8.64256C14.5285 8.64256 14.4194 8.68777 14.3389 8.76824C14.2585 8.84871 14.2133 8.95785 14.2133 9.07165C14.2133 9.18545 14.2585 9.29459 14.3389 9.37506L17.0362 12.0715H6.92854C6.81489 12.0715 6.70588 12.1166 6.62552 12.197C6.54515 12.2773 6.5 12.3863 6.5 12.5Z" fill="white"/>
</svg>
