<svg width="16" height="16" viewBox="0 0 16 16" fill="none" xmlns="http://www.w3.org/2000/svg">
<path d="M13.8333 0.100098C14.2754 0.100098 14.6993 0.275692 15.0118 0.588253C15.3244 0.900814 15.5 1.32474 15.5 1.76676V13.4334C15.5 13.8755 15.3244 14.2994 15.0118 14.6119C14.6993 14.9245 14.2754 15.1001 13.8333 15.1001H2.16667C1.72464 15.1001 1.30072 14.9245 0.988155 14.6119C0.675595 14.2994 0.5 13.8755 0.5 13.4334V1.76676C0.5 1.32474 0.675595 0.900814 0.988155 0.588253C1.30072 0.275692 1.72464 0.100098 2.16667 0.100098H13.8333ZM13.4167 13.0168V8.6001C13.4167 7.87959 13.1304 7.1886 12.621 6.67912C12.1115 6.16965 11.4205 5.88343 10.7 5.88343C9.99167 5.88343 9.16667 6.31676 8.76667 6.96676V6.04176H6.44167V13.0168H8.76667V8.90843C8.76667 8.26676 9.28333 7.74176 9.925 7.74176C10.2344 7.74176 10.5312 7.86468 10.75 8.08347C10.9688 8.30227 11.0917 8.59901 11.0917 8.90843V13.0168H13.4167ZM3.73333 4.73343C4.10464 4.73343 4.46073 4.58593 4.72328 4.32338C4.98583 4.06083 5.13333 3.70473 5.13333 3.33343C5.13333 2.55843 4.50833 1.9251 3.73333 1.9251C3.35982 1.9251 3.0016 2.07348 2.73749 2.33759C2.47338 2.6017 2.325 2.95992 2.325 3.33343C2.325 4.10843 2.95833 4.73343 3.73333 4.73343ZM4.89167 13.0168V6.04176H2.58333V13.0168H4.89167Z" fill="white"/>
</svg>
