<svg width="13" height="16" viewBox="0 0 13 16" fill="none" xmlns="http://www.w3.org/2000/svg">
<path d="M7.05875 0.100098C3.88562 0.100098 0.75 2.21447 0.75 5.63822C0.75 7.8151 1.97375 9.0526 2.71625 9.0526C3.0225 9.0526 3.2 8.19885 3.2 7.9576C3.2 7.6701 2.46625 7.0576 2.46625 5.86072C2.46625 3.37447 4.35875 1.6126 6.80813 1.6126C8.91438 1.6126 10.4731 2.80885 10.4731 5.0076C10.4731 6.64947 9.81375 9.72885 7.67937 9.72885C6.91 9.72885 6.25188 9.1726 6.25188 8.3751C6.25188 7.20635 7 6.07447 7 4.86822C7 2.82072 4.16438 3.19197 4.16438 5.66635C4.16438 6.18572 4.22937 6.76072 4.46125 7.23385C4.03437 9.07135 3.25 11.9982 3.25 13.8913C3.25 14.4757 3.33375 15.0507 3.38937 15.6357C3.49437 15.7532 3.44187 15.7413 3.6025 15.6826C5.16125 13.5488 5.01687 12.9401 5.72188 10.1476C6.10313 10.8713 7.08625 11.2607 7.86563 11.2607C11.15 11.2607 12.625 8.06072 12.625 5.17447C12.625 2.10385 9.97188 0.100098 7.05875 0.100098Z" fill="white"/>
</svg>
