<svg width="18" height="13" viewBox="0 0 18 13" fill="none" xmlns="http://www.w3.org/2000/svg">
<path d="M7.33366 9.09993L11.6587 6.59993L7.33366 4.09993V9.09993ZM16.967 2.57493C17.0753 2.9666 17.1503 3.4916 17.2003 4.15827C17.2587 4.82493 17.2837 5.39993 17.2837 5.89993L17.3337 6.59993C17.3337 8.42493 17.2003 9.7666 16.967 10.6249C16.7587 11.3749 16.2753 11.8583 15.5253 12.0666C15.1337 12.1749 14.417 12.2499 13.317 12.2999C12.2337 12.3583 11.242 12.3833 10.3253 12.3833L9.00033 12.4333C5.50866 12.4333 3.33366 12.2999 2.47533 12.0666C1.72533 11.8583 1.24199 11.3749 1.03366 10.6249C0.925326 10.2333 0.850326 9.70827 0.800326 9.0416C0.741992 8.37494 0.716992 7.79993 0.716992 7.29993L0.666992 6.59993C0.666992 4.77493 0.800326 3.43327 1.03366 2.57493C1.24199 1.82493 1.72533 1.3416 2.47533 1.13327C2.86699 1.02493 3.58366 0.949935 4.68366 0.899935C5.76699 0.841601 6.75866 0.816602 7.67533 0.816602L9.00033 0.766602C12.492 0.766602 14.667 0.899935 15.5253 1.13327C16.2753 1.3416 16.7587 1.82493 16.967 2.57493Z" fill="white"/>
</svg>
