<svg width="13" height="8" viewBox="0 0 13 8" fill="none" xmlns="http://www.w3.org/2000/svg">
<path fill-rule="evenodd" clip-rule="evenodd" d="M0.5 4C0.5 4.11366 0.54515 4.22266 0.625517 4.30303C0.705885 4.38339 0.814887 4.42854 0.928544 4.42854L11.0362 4.42854L8.33893 7.12494C8.25846 7.20541 8.21325 7.31455 8.21325 7.42835C8.21325 7.54215 8.25846 7.65129 8.33893 7.73176C8.4194 7.81223 8.52854 7.85744 8.64234 7.85744C8.75614 7.85744 8.86528 7.81223 8.94575 7.73176L12.3741 4.30341C12.414 4.2636 12.4457 4.21631 12.4673 4.16425C12.4889 4.11218 12.5 4.05637 12.5 4C12.5 3.94363 12.4889 3.88782 12.4673 3.83575C12.4457 3.78369 12.414 3.7364 12.3741 3.69659L8.94575 0.268239C8.9059 0.228395 8.8586 0.196789 8.80654 0.175225C8.75448 0.153662 8.69869 0.142563 8.64234 0.142563C8.52854 0.142563 8.4194 0.18777 8.33893 0.268239C8.25846 0.348708 8.21325 0.457848 8.21325 0.571648C8.21325 0.685449 8.25846 0.794588 8.33893 0.875057L11.0362 3.57146L0.928544 3.57146C0.814887 3.57146 0.705885 3.61661 0.625517 3.69697C0.54515 3.77734 0.5 3.88634 0.5 4Z" fill="white"/>
</svg>
