<svg width="21" height="15" viewBox="0 0 21 15" fill="none" xmlns="http://www.w3.org/2000/svg">
<g clip-path="url(#clip0_71_352)">
<path d="M2.04861 14.0621H19.8264C20.4375 14.0621 20.9375 13.5621 20.9375 12.951C20.9375 12.3399 20.4375 11.8399 19.8264 11.8399H2.04861C1.4375 11.8399 0.9375 12.3399 0.9375 12.951C0.9375 13.5621 1.4375 14.0621 2.04861 14.0621ZM2.04861 8.50654H19.8264C20.4375 8.50654 20.9375 8.00654 20.9375 7.39543C20.9375 6.78432 20.4375 6.28432 19.8264 6.28432H2.04861C1.4375 6.28432 0.9375 6.78432 0.9375 7.39543C0.9375 8.00654 1.4375 8.50654 2.04861 8.50654ZM0.9375 1.83987C0.9375 2.45098 1.4375 2.95098 2.04861 2.95098H19.8264C20.4375 2.95098 20.9375 2.45098 20.9375 1.83987C20.9375 1.22876 20.4375 0.72876 19.8264 0.72876H2.04861C1.4375 0.72876 0.9375 1.22876 0.9375 1.83987Z" fill="#1A1A1A"/>
</g>
<defs>
<clipPath id="clip0_71_352">
<rect width="21" height="14" fill="white" transform="translate(0 0.72876)"/>
</clipPath>
</defs>
</svg>
