<svg width="18" height="17" viewBox="0 0 18 17" fill="none" xmlns="http://www.w3.org/2000/svg">
<path d="M5.50033 0.266602H12.5003C15.167 0.266602 17.3337 2.43327 17.3337 5.09994V12.0999C17.3337 13.3818 16.8244 14.6112 15.918 15.5176C15.0116 16.424 13.7822 16.9333 12.5003 16.9333H5.50033C2.83366 16.9333 0.666992 14.7666 0.666992 12.0999V5.09994C0.666992 3.81806 1.17622 2.58868 2.08264 1.68225C2.98907 0.775826 4.21845 0.266602 5.50033 0.266602ZM5.33366 1.93327C4.53801 1.93327 3.77495 2.24934 3.21234 2.81195C2.64973 3.37456 2.33366 4.13762 2.33366 4.93327V12.2666C2.33366 13.9249 3.67533 15.2666 5.33366 15.2666H12.667C13.4626 15.2666 14.2257 14.9505 14.7883 14.3879C15.3509 13.8253 15.667 13.0623 15.667 12.2666V4.93327C15.667 3.27493 14.3253 1.93327 12.667 1.93327H5.33366ZM13.3753 3.18327C13.6516 3.18327 13.9165 3.29301 14.1119 3.48837C14.3072 3.68372 14.417 3.94867 14.417 4.22493C14.417 4.5012 14.3072 4.76615 14.1119 4.9615C13.9165 5.15685 13.6516 5.2666 13.3753 5.2666C13.0991 5.2666 12.8341 5.15685 12.6388 4.9615C12.4434 4.76615 12.3337 4.5012 12.3337 4.22493C12.3337 3.94867 12.4434 3.68372 12.6388 3.48837C12.8341 3.29301 13.0991 3.18327 13.3753 3.18327ZM9.00033 4.43327C10.1054 4.43327 11.1652 4.87225 11.9466 5.65366C12.728 6.43506 13.167 7.49487 13.167 8.59993C13.167 9.705 12.728 10.7648 11.9466 11.5462C11.1652 12.3276 10.1054 12.7666 9.00033 12.7666C7.89526 12.7666 6.83545 12.3276 6.05405 11.5462C5.27265 10.7648 4.83366 9.705 4.83366 8.59993C4.83366 7.49487 5.27265 6.43506 6.05405 5.65366C6.83545 4.87225 7.89526 4.43327 9.00033 4.43327ZM9.00033 6.09993C8.33728 6.09993 7.7014 6.36333 7.23256 6.83217C6.76372 7.30101 6.50033 7.93689 6.50033 8.59993C6.50033 9.26298 6.76372 9.89886 7.23256 10.3677C7.7014 10.8365 8.33728 11.0999 9.00033 11.0999C9.66337 11.0999 10.2993 10.8365 10.7681 10.3677C11.2369 9.89886 11.5003 9.26298 11.5003 8.59993C11.5003 7.93689 11.2369 7.30101 10.7681 6.83217C10.2993 6.36333 9.66337 6.09993 9.00033 6.09993Z" fill="white"/>
</svg>
