<?xml version="1.0" encoding="UTF-8"?>
<svg id="Layer_1" xmlns="http://www.w3.org/2000/svg" viewBox="0 0 97.1 19.14">
  <polygon fill="white" points="0 .6 0 18.55 3.59 18.55 3.59 7.52 17.96 19.14 17.96 .6 14.35 .6 14.35 11.62 0 0 0 .6"/>
  <rect fill="white" x="64.53" y=".6" width="3.59" height="17.95"/>
  <rect fill="white" x="93.51" y=".6" width="3.59" height="17.95"/>
  <polygon fill="white" points="76.02 14.96 89.21 14.96 89.21 18.55 72.43 18.55 72.43 .6 76.02 .6 76.02 14.96"/>
  <path fill="white" d="M21.19,9.57c0-5.29,4.02-9.57,8.98-9.57s8.98,4.29,8.98,9.57-4.02,9.57-8.98,9.57-8.98-4.29-8.98-9.57M24.78,9.57c0,3.3,2.41,5.98,5.39,5.98s5.39-2.68,5.39-5.98-2.41-5.98-5.39-5.98-5.39,2.68-5.39,5.98"/>
  <path fill="white" d="M55.28,18.55h-12.54V.6h12.6c2.96.01,5.36,2.42,5.36,5.39,0,1.38-.52,2.63-1.38,3.58.86.95,1.38,2.21,1.38,3.6,0,2.97-2.45,5.38-5.42,5.38M55.37,4.19h-9.03v3.59h8.97c.99,0,1.8-.81,1.8-1.8s-.77-1.76-1.74-1.79M55.4,14.96h-.09c.99,0,1.8-.81,1.8-1.8s-.8-1.8-1.81-1.8h-8.95v3.59h9.06Z"/>
</svg>
