<?xml version="1.0" encoding="UTF-8"?>
<svg id="Capa_1" data-name="Capa 1" xmlns="http://www.w3.org/2000/svg" version="1.1" xmlns:xlink="http://www.w3.org/1999/xlink" viewBox="0 0 99 37">
  <defs>
    <style>
      .cls-1 {
        fill: none;
      }

      .cls-1, .cls-2, .cls-3 {
        stroke-width: 0px;
      }

      .cls-2 {
        fill: #FFFFFF;
      }

      .cls-4 {
        clip-path: url(#clippath);
      }

      .cls-3 {
        fill: #FFFFFF;
      }
    </style>
    <clipPath id="clippath">
      <rect class="cls-1" y="0" width="99" height="37"/>
    </clipPath>
  </defs>
  <g class="cls-4">
    <g>
      <path class="cls-2" d="M18.1,0c-.4,0-.8.1-1.1.3-.3.2-.5.5-.6.7l-4.2,11.7c-.2.5-.4,1.1-.5,1.7-.2.6-.3,1.2-.5,1.9h0c-.2-.6-.4-1.3-.5-1.9-.2-.6-.4-1.2-.6-1.7L5.8,1.1c-.1-.3-.3-.6-.6-.8C4.9,0,4.6,0,4.1,0H0l8.8,21.9h4.6L22.3,0h-4.1Z"/>
      <path class="cls-2" d="M64.9,21.9h14.2v-3.9h-9v-5.2h6.9v-3.7h-6.9V3.9h5.1c2.2,0,3.9-1.7,3.9-3.9h-14.2v21.9Z"/>
      <path class="cls-3" d="M63.8,11.2s0,0-.1-.1c-.5-.5-1-.8-1.6-1.1-.6-.3-1.2-.5-1.8-.7-.6-.2-1.2-.4-1.8-.6-.6-.2-1.1-.4-1.6-.6-.5-.2-.8-.5-1.1-.7-.3-.3-.4-.7-.4-1.1,0-.7.2-1.2.7-1.7.5-.4,1.2-.6,2.1-.6s1,0,1.5.2c.4.1.8.3,1.2.5.3.2.6.3.9.5.3.1.5.2.8.2s.5,0,.6-.2c.2-.1.3-.3.5-.5v-.3c.1,0,.1-2.9.1-2.9,0,0-.1,0-.2-.1-.5-.3-1-.5-1.6-.7-.6-.2-1.2-.4-1.8-.5C59.6,0,58.9,0,58.2,0c-1.2,0-2.3.2-3.2.5-.9.4-1.7.9-2.4,1.5-.6.6-1.1,1.3-1.5,2.1-.3.8-.5,1.6-.5,2.4s.1,1.9.4,2.6c.3.7.7,1.3,1.1,1.7.5.5,1,.8,1.6,1.1.6.3,1.2.5,1.8.7s1.2.4,1.8.5c.6.2,1.1.3,1.6.6.5.2.8.5,1.1.8.3.3.4.7.4,1.2,0,.9-.3,1.5-.8,1.9-.5.4-1.2.6-2.2.6s-1.3,0-1.8-.3c-.5-.2-1-.4-1.3-.6-.4-.2-.7-.4-1-.6-.3-.2-.6-.3-.9-.3s-.5,0-.7.2c-.2.1-.4.2-.5.4l-1.5,2.4c.4.4.9.8,1.5,1.2.6.3,1.2.7,1.9.9.7.2,1.3.5,2.1.6.7.1,1.4.2,2.1.2,1.3,0,2.4-.2,3.4-.6,1-.4,1.8-.9,2.5-1.5.2-.2.4-.5.6-.7v-8.3h0Z"/>
      <path class="cls-2" d="M94.3,14.3c-.2-.4-.5-.7-.8-.9-.3-.2-.6-.5-1-.6.7-.3,1.3-.6,1.9-1,.5-.4,1-.9,1.4-1.4.4-.5.7-1.1.8-1.7.2-.6.3-1.3.3-2s-.2-1.8-.5-2.6c-.3-.8-.8-1.5-1.5-2.1-.7-.6-1.6-1-2.8-1.4C91.1.2,89.7,0,88.2,0h-7.2v21.9h5.1v-8.1h1.3c.4,0,.7,0,.9.2.2.1.4.3.6.6l3.6,6.3c.4.6,1,1,1.8,1h4.6l-4.7-7.6ZM91.8,8.2c-.1.4-.4.8-.7,1.1-.3.3-.7.5-1.2.7-.5.2-1.1.3-1.8.3h-2.1V3.8h2.1c1.3,0,2.3.3,2.9.8.6.5.9,1.3.9,2.2,0,.5,0,.9-.2,1.3Z"/>
      <path class="cls-2" d="M29.6,0h-5.2l-8.5,21.9h4c.4,0,.8-.1,1.1-.3.3-.2.5-.5.6-.7l1.3-3.8,1.2-3.4,2-6c.2-.4.3-.8.5-1.4.2-.5.3-1.1.5-1.7.2.6.3,1.2.5,1.7.2.5.3,1,.5,1.3l2,6h-2.1c-1.6,0-3.4,2.2-3.8,3.4h7.1l1.3,3.8c.1.3.3.6.6.8.3.2.7.3,1.1.3h4L29.6,0Z"/>
      <path class="cls-3" d="M49.9,12.8c-.3-.6-.7-1.2-1.1-1.7-.5-.5-1-.8-1.6-1.1-.6-.3-1.2-.5-1.8-.7-.6-.2-1.2-.4-1.8-.6-.6-.2-1.1-.4-1.6-.6-.5-.2-.8-.5-1.1-.7-.3-.3-.4-.7-.4-1.1,0-.7.2-1.2.7-1.7.5-.4,1.2-.6,2.1-.6s1,0,1.5.2c.4.1.8.3,1.2.5.3.2.6.3.9.5.3.1.5.2.8.2s.5,0,.6-.2c.2-.1.3-.3.5-.5l1.3-2.4c-.4-.4-.8-.7-1.3-1-.5-.3-1-.5-1.6-.7-.6-.2-1.2-.4-1.8-.5-.6-.1-1.3-.2-2-.2-1.2,0-2.3.2-3.2.5-.9.4-1.7.9-2.4,1.5-.6.6-1.1,1.3-1.5,2.1-.3.8-.5,1.6-.5,2.4s.1,1.9.4,2.6c.3.7.7,1.3,1.1,1.7.5.5,1,.8,1.6,1.1.6.3,1.2.5,1.8.7.6.2,1.2.4,1.8.5.6.2,1.1.3,1.6.6.5.2.8.5,1.1.8.3.3.4.7.4,1.2,0,.9-.3,1.5-.8,1.9-.5.4-1.2.6-2.2.6s-1.3,0-1.8-.3c-.5-.2-1-.4-1.3-.6-.4-.2-.7-.4-1-.6-.3-.2-.6-.3-.9-.3s-.3,0-.5,0l2.1,5.3c.4.1.8.2,1.2.3.7.1,1.4.2,2.1.2,1.3,0,2.4-.2,3.4-.6,1-.4,1.8-.9,2.5-1.5.7-.7,1.2-1.4,1.5-2.3.3-.9.5-1.8.5-2.8,0-1-.2-1.7-.5-2.4Z"/>
      <path class="cls-2" d="M13.4,34.2c.3.2.5.6.5,1s-.1.7-.4.9-.6.5-1,.6-.9.2-1.5.2c-.9,0-1.6-.1-2.1-.4-.5-.3-.7-.7-.7-1.1s0-.6.3-.8c.2-.2.5-.4.8-.5-.2-.1-.4-.2-.6-.4-.1-.2-.2-.4-.2-.6s0-.5.3-.7c.2-.2.4-.3.8-.4-.3-.2-.6-.4-.8-.7-.2-.3-.3-.6-.3-1,0-.6.2-1,.7-1.4.4-.3,1-.5,1.8-.5s1,0,1.3.3c0-.4.2-.7.5-.9.3-.2.6-.3,1-.3v.5c-.2,0-.5,0-.7.2-.2.2-.3.4-.4.7.5.4.7.8.7,1.4s-.2,1-.7,1.4-1,.5-1.7.5-.5,0-.8,0c-.3,0-.6.1-.8.3-.2.2-.3.3-.3.5s.1.5.3.6c.2.1.5.2,1,.2h1.5c.6,0,1,.2,1.4.4ZM12.8,36.1c.4-.2.6-.5.6-.9s-.1-.5-.4-.7-.6-.2-1.1-.2h-1.5c-.5,0-.8,0-1.1.3-.3.2-.4.4-.4.7s.2.7.6.9c.4.2,1,.3,1.7.3s1.2-.1,1.6-.4ZM9.8,31.4c.3.2.8.4,1.3.4s1-.1,1.3-.4c.3-.2.5-.6.5-1s-.2-.8-.5-1c-.3-.2-.8-.4-1.3-.4s-1,.1-1.3.4c-.3.2-.5.6-.5,1,0,.4.2.8.5,1Z"/>
      <path class="cls-2" d="M19.1,28.6l-.2.5c-.2-.1-.4-.2-.8-.2s-.6,0-.8.3c-.3.2-.5.5-.6.8-.2.3-.3.7-.3,1.1v3.3h-.6v-5.9h.5v1.2c.2-.4.5-.7.8-1,.3-.2.7-.3,1.2-.3s.5,0,.7.2Z"/>
      <path class="cls-2" d="M21,27.3c0,0-.1-.2-.1-.4s0-.3.1-.4c0,0,.2-.1.4-.1s.3,0,.4.1c0,0,.1.2.1.4s0,.3-.1.4c0,0-.2.1-.4.1s-.3,0-.4-.1ZM21.7,34.5h-.6v-5.9h.6v5.9Z"/>
      <path class="cls-2" d="M25.5,28.6h2.1v.5h-2.1v5.4h-.6v-5.4h-1.2v-.5h1.2v-1c0-.5.2-1,.5-1.3.3-.3.8-.5,1.3-.5s.8.1,1,.3l-.2.5c-.2-.2-.5-.2-.8-.2s-.7.1-.9.3c-.2.2-.3.5-.3,1v.9h0Z"/>
      <path class="cls-2" d="M34.1,31.8h-4.7c0,.7.3,1.3.6,1.7.4.4.9.6,1.6.6s.9,0,1.2-.3c.3-.2.6-.5.7-.8l.5.2c-.2.4-.5.8-1,1-.4.2-.9.3-1.5.3-.9,0-1.6-.3-2.1-.8-.5-.5-.7-1.3-.7-2.2s.3-1.7.7-2.2c.5-.5,1.1-.8,2-.8s1.4.3,1.9.8c.5.5.7,1.2.7,2.1s0,.2,0,.4ZM30,29.6c-.4.4-.6,1-.6,1.7h4.2c0-.7-.2-1.3-.6-1.7-.3-.4-.8-.6-1.4-.6-.6,0-1.1.2-1.5.6Z"/>
      <path class="cls-2" d="M39.8,28.6l-.2.5c-.2-.1-.4-.2-.8-.2s-.6,0-.8.3c-.3.2-.5.5-.6.8-.2.3-.3.7-.3,1.1v3.3h-.6v-5.9h.5v1.2c.2-.4.5-.7.8-1,.3-.2.7-.3,1.2-.3s.5,0,.7.2Z"/>
      <path class="cls-2" d="M43.3,25.7l-1.1,1.9h-.5l1-1.9h.6ZM42.4,34.5h-.6v-5.9h.6v5.9Z"/>
      <path class="cls-2" d="M50.4,34v.5c-.2,0-.4.1-.6.1s-.5,0-.7-.2-.3-.4-.3-.8c-.2.3-.5.6-.9.7-.4.2-.8.3-1.3.3s-1-.1-1.4-.4c-.3-.2-.5-.6-.5-1.1,0-.9.8-1.5,2.3-1.8l1.8-.3v-.5c0-.5-.1-.8-.4-1.1-.3-.3-.7-.4-1.2-.4-.9,0-1.6.4-1.9,1.2l-.5-.3c.2-.5.5-.8.9-1.1.4-.2.9-.4,1.5-.4s1.2.2,1.6.5c.4.3.6.8.6,1.5v3c0,.4.2.6.5.6s.3,0,.5,0ZM47.7,33.9c.3-.1.6-.3.8-.5.2-.2.3-.5.3-.8v-1.1l-1.6.3c-.6.1-1.1.3-1.4.5-.3.2-.4.5-.4.8s.1.6.4.7c.3.2.6.2,1,.2.3,0,.6,0,.9-.2Z"/>
    </g>
  </g>
</svg>