<svg width="13" height="12" viewBox="0 0 13 12" fill="none" xmlns="http://www.w3.org/2000/svg">
<path d="M6.49996 2.3999C6.65909 2.3999 6.81171 2.46312 6.92423 2.57564C7.03675 2.68816 7.09996 2.84077 7.09996 2.9999V6.5999C7.09996 6.75903 7.03675 6.91164 6.92423 7.02417C6.81171 7.13669 6.65909 7.1999 6.49996 7.1999C6.34083 7.1999 6.18822 7.13669 6.0757 7.02417C5.96318 6.91164 5.89996 6.75903 5.89996 6.5999V2.9999C5.89996 2.84077 5.96318 2.68816 6.0757 2.57564C6.18822 2.46312 6.34083 2.3999 6.49996 2.3999ZM6.49996 8.3999C6.34083 8.3999 6.18822 8.46312 6.0757 8.57564C5.96318 8.68816 5.89996 8.84077 5.89996 8.9999C5.89996 9.15903 5.96318 9.31164 6.0757 9.42417C6.18822 9.53669 6.34083 9.5999 6.49996 9.5999C6.65909 9.5999 6.81171 9.53669 6.92423 9.42417C7.03675 9.31164 7.09996 9.15903 7.09996 8.9999C7.09996 8.84077 7.03675 8.68816 6.92423 8.57564C6.81171 8.46312 6.65909 8.3999 6.49996 8.3999Z" fill="#F50000"/>
<path fill-rule="evenodd" clip-rule="evenodd" d="M6.5 0C3.1862 0 0.5 2.6862 0.5 6C0.5 9.3138 3.1862 12 6.5 12C9.8138 12 12.5 9.3138 12.5 6C12.5 2.6862 9.8138 0 6.5 0ZM1.7 6C1.7 7.27304 2.20571 8.49394 3.10589 9.39411C4.00606 10.2943 5.22696 10.8 6.5 10.8C7.77304 10.8 8.99394 10.2943 9.89411 9.39411C10.7943 8.49394 11.3 7.27304 11.3 6C11.3 4.72696 10.7943 3.50606 9.89411 2.60589C8.99394 1.70571 7.77304 1.2 6.5 1.2C5.22696 1.2 4.00606 1.70571 3.10589 2.60589C2.20571 3.50606 1.7 4.72696 1.7 6Z" fill="#F50000"/>
</svg>
